0
SECTION
2
ENTITIES
0
LINE
8
0
10
0
20
0
30
0.0
11
1300.0
21
0
31
0.0
0
LINE
8
0
10
1300.0
20
0
30
0.0
11
1300.0
21
850.0
31
0.0
0
LINE
8
0
10
1300.0
20
850.0
30
0.0
11
0
21
850.0
31
0.0
0
LINE
8
0
10
0
20
850.0
30
0.0
11
0
21
0
31
0.0
0
LINE
8
0
10
0.0
20
425.0
30
0.0
11
-866.6666666666666
21
425.0
31
0.0
0
LINE
8
0
10
-866.6666666666666
20
345.0
30
0.0
11
-866.6666666666666
21
505.0
31
0.0
0
LINE
8
0
10
-16.0
20
401.0
30
0.0
11
16.0
21
401.0
31
0.0
0
LINE
8
0
10
16.0
20
401.0
30
0.0
11
16.0
21
449.0
31
0.0
0
LINE
8
0
10
16.0
20
449.0
30
0.0
11
-16.0
21
449.0
31
0.0
0
LINE
8
0
10
-16.0
20
449.0
30
0.0
11
-16.0
21
401.0
31
0.0
0
LINE
8
0
10
90
20
20.0
30
0.0
11
90
21
830.0
31
0.0
0
LINE
8
0
10
81
20
142.0
30
0.0
11
99
21
142.0
31
0.0
0
LINE
8
0
10
99
20
142.0
30
0.0
11
99
21
168.0
31
0.0
0
LINE
8
0
10
99
20
168.0
30
0.0
11
81
21
168.0
31
0.0
0
LINE
8
0
10
81
20
168.0
30
0.0
11
81
21
142.0
31
0.0
0
LINE
8
0
10
81
20
682.0
30
0.0
11
99
21
682.0
31
0.0
0
LINE
8
0
10
99
20
682.0
30
0.0
11
99
21
708.0
31
0.0
0
LINE
8
0
10
99
20
708.0
30
0.0
11
81
21
708.0
31
0.0
0
LINE
8
0
10
81
20
708.0
30
0.0
11
81
21
682.0
31
0.0
0
LINE
8
0
10
1210.0
20
20.0
30
0.0
11
1210.0
21
830.0
31
0.0
0
LINE
8
0
10
1201.0
20
142.0
30
0.0
11
1219.0
21
142.0
31
0.0
0
LINE
8
0
10
1219.0
20
142.0
30
0.0
11
1219.0
21
168.0
31
0.0
0
LINE
8
0
10
1219.0
20
168.0
30
0.0
11
1201.0
21
168.0
31
0.0
0
LINE
8
0
10
1201.0
20
168.0
30
0.0
11
1201.0
21
142.0
31
0.0
0
LINE
8
0
10
1201.0
20
682.0
30
0.0
11
1219.0
21
682.0
31
0.0
0
LINE
8
0
10
1219.0
20
682.0
30
0.0
11
1219.0
21
708.0
31
0.0
0
LINE
8
0
10
1219.0
20
708.0
30
0.0
11
1201.0
21
708.0
31
0.0
0
LINE
8
0
10
1201.0
20
708.0
30
0.0
11
1201.0
21
682.0
31
0.0
0
LINE
8
0
10
0
20
-1320.0
30
0.0
11
1300.0
21
-1320.0
31
0.0
0
LINE
8
0
10
1300.0
20
-1320.0
30
0.0
11
1300.0
21
-1280.0
31
0.0
0
LINE
8
0
10
1300.0
20
-1280.0
30
0.0
11
0
21
-1280.0
31
0.0
0
LINE
8
0
10
0
20
-1280.0
30
0.0
11
0
21
-1320.0
31
0.0
0
LINE
8
0
10
0
20
-1180.0
30
0.0
11
1300.0
21
-1180.0
31
0.0
0
LINE
8
0
10
1300.0
20
-1180.0
30
0.0
11
1300.0
21
-1140.0
31
0.0
0
LINE
8
0
10
1300.0
20
-1140.0
30
0.0
11
0
21
-1140.0
31
0.0
0
LINE
8
0
10
0
20
-1140.0
30
0.0
11
0
21
-1180.0
31
0.0
0
LINE
8
0
10
0
20
-1140.0
30
0.0
11
1300.0
21
-1140.0
31
0.0
0
LINE
8
0
10
1300.0
20
-1140.0
30
0.0
11
1300.0
21
-1136.0
31
0.0
0
LINE
8
0
10
1300.0
20
-1136.0
30
0.0
11
0
21
-1136.0
31
0.0
0
LINE
8
0
10
0
20
-1136.0
30
0.0
11
0
21
-1140.0
31
0.0
0
LINE
8
0
10
0.0
20
-1300.0
30
0.0
11
-866.6666666666666
21
-1300.0
31
0.0
0
LINE
8
0
10
-16.0
20
-1322.0
30
0.0
11
16.0
21
-1322.0
31
0.0
0
LINE
8
0
10
16.0
20
-1322.0
30
0.0
11
16.0
21
-1278.0
31
0.0
0
LINE
8
0
10
16.0
20
-1278.0
30
0.0
11
-16.0
21
-1278.0
31
0.0
0
LINE
8
0
10
-16.0
20
-1278.0
30
0.0
11
-16.0
21
-1322.0
31
0.0
0
LINE
8
0
10
40
20
-1280.0
30
0.0
11
70
21
-1280.0
31
0.0
0
LINE
8
0
10
70
20
-1280.0
30
0.0
11
70
21
-1180.0
31
0.0
0
LINE
8
0
10
70
20
-1180.0
30
0.0
11
40
21
-1180.0
31
0.0
0
LINE
8
0
10
40
20
-1180.0
30
0.0
11
40
21
-1280.0
31
0.0
0
LINE
8
0
10
1230.0
20
-1280.0
30
0.0
11
1260.0
21
-1280.0
31
0.0
0
LINE
8
0
10
1260.0
20
-1280.0
30
0.0
11
1260.0
21
-1180.0
31
0.0
0
LINE
8
0
10
1260.0
20
-1180.0
30
0.0
11
1230.0
21
-1180.0
31
0.0
0
LINE
8
0
10
1230.0
20
-1180.0
30
0.0
11
1230.0
21
-1280.0
31
0.0
0
LINE
8
0
10
433.3333333333333
20
-1280.0
30
0.0
11
463.3333333333333
21
-1280.0
31
0.0
0
LINE
8
0
10
463.3333333333333
20
-1280.0
30
0.0
11
463.3333333333333
21
-1180.0
31
0.0
0
LINE
8
0
10
463.3333333333333
20
-1180.0
30
0.0
11
433.3333333333333
21
-1180.0
31
0.0
0
LINE
8
0
10
433.3333333333333
20
-1180.0
30
0.0
11
433.3333333333333
21
-1280.0
31
0.0
0
LINE
8
0
10
866.6666666666666
20
-1280.0
30
0.0
11
896.6666666666666
21
-1280.0
31
0.0
0
LINE
8
0
10
896.6666666666666
20
-1280.0
30
0.0
11
896.6666666666666
21
-1180.0
31
0.0
0
LINE
8
0
10
896.6666666666666
20
-1180.0
30
0.0
11
866.6666666666666
21
-1180.0
31
0.0
0
LINE
8
0
10
866.6666666666666
20
-1180.0
30
0.0
11
866.6666666666666
21
-1280.0
31
0.0
0
LINE
8
0
10
78.0
20
-1428.0
30
0.0
11
88.0
21
-1428.0
31
0.0
0
LINE
8
0
10
88.0
20
-1428.0
30
0.0
11
88.0
21
-1412.0
31
0.0
0
LINE
8
0
10
88.0
20
-1412.0
30
0.0
11
78.0
21
-1412.0
31
0.0
0
LINE
8
0
10
78.0
20
-1412.0
30
0.0
11
78.0
21
-1428.0
31
0.0
0
LINE
8
0
10
78.0
20
-1412.0
30
0.0
11
88.0
21
-1412.0
31
0.0
0
LINE
8
0
10
88.0
20
-1412.0
30
0.0
11
88.0
21
-1320.0
31
0.0
0
LINE
8
0
10
88.0
20
-1320.0
30
0.0
11
78.0
21
-1320.0
31
0.0
0
LINE
8
0
10
78.0
20
-1320.0
30
0.0
11
78.0
21
-1412.0
31
0.0
0
LINE
8
0
10
92.0
20
-1428.0
30
0.0
11
102.0
21
-1428.0
31
0.0
0
LINE
8
0
10
102.0
20
-1428.0
30
0.0
11
102.0
21
-1412.0
31
0.0
0
LINE
8
0
10
102.0
20
-1412.0
30
0.0
11
92.0
21
-1412.0
31
0.0
0
LINE
8
0
10
92.0
20
-1412.0
30
0.0
11
92.0
21
-1428.0
31
0.0
0
LINE
8
0
10
92.0
20
-1412.0
30
0.0
11
102.0
21
-1412.0
31
0.0
0
LINE
8
0
10
102.0
20
-1412.0
30
0.0
11
102.0
21
-1320.0
31
0.0
0
LINE
8
0
10
102.0
20
-1320.0
30
0.0
11
92.0
21
-1320.0
31
0.0
0
LINE
8
0
10
92.0
20
-1320.0
30
0.0
11
92.0
21
-1412.0
31
0.0
0
LINE
8
0
10
1198.0
20
-1428.0
30
0.0
11
1208.0
21
-1428.0
31
0.0
0
LINE
8
0
10
1208.0
20
-1428.0
30
0.0
11
1208.0
21
-1412.0
31
0.0
0
LINE
8
0
10
1208.0
20
-1412.0
30
0.0
11
1198.0
21
-1412.0
31
0.0
0
LINE
8
0
10
1198.0
20
-1412.0
30
0.0
11
1198.0
21
-1428.0
31
0.0
0
LINE
8
0
10
1198.0
20
-1412.0
30
0.0
11
1208.0
21
-1412.0
31
0.0
0
LINE
8
0
10
1208.0
20
-1412.0
30
0.0
11
1208.0
21
-1320.0
31
0.0
0
LINE
8
0
10
1208.0
20
-1320.0
30
0.0
11
1198.0
21
-1320.0
31
0.0
0
LINE
8
0
10
1198.0
20
-1320.0
30
0.0
11
1198.0
21
-1412.0
31
0.0
0
LINE
8
0
10
1212.0
20
-1428.0
30
0.0
11
1222.0
21
-1428.0
31
0.0
0
LINE
8
0
10
1222.0
20
-1428.0
30
0.0
11
1222.0
21
-1412.0
31
0.0
0
LINE
8
0
10
1222.0
20
-1412.0
30
0.0
11
1212.0
21
-1412.0
31
0.0
0
LINE
8
0
10
1212.0
20
-1412.0
30
0.0
11
1212.0
21
-1428.0
31
0.0
0
LINE
8
0
10
1212.0
20
-1412.0
30
0.0
11
1222.0
21
-1412.0
31
0.0
0
LINE
8
0
10
1222.0
20
-1412.0
30
0.0
11
1222.0
21
-1320.0
31
0.0
0
LINE
8
0
10
1222.0
20
-1320.0
30
0.0
11
1212.0
21
-1320.0
31
0.0
0
LINE
8
0
10
1212.0
20
-1320.0
30
0.0
11
1212.0
21
-1412.0
31
0.0
0
CIRCLE
8
0
10
90
20
-1420.0
30
0.0
40
80.0
0
CIRCLE
8
0
10
1210.0
20
-1420.0
30
0.0
40
80.0
0
ENDSEC
0
EOF
