0
SECTION
2
ENTITIES
0
LINE
8
0
10
0
20
0
30
0.0
11
1300.0
21
0
31
0.0
0
LINE
8
0
10
1300.0
20
0
30
0.0
11
1300.0
21
1000.0
31
0.0
0
LINE
8
0
10
1300.0
20
1000.0
30
0.0
11
0
21
1000.0
31
0.0
0
LINE
8
0
10
0
20
1000.0
30
0.0
11
0
21
0
31
0.0
0
LINE
8
0
10
1300.0
20
500.0
30
0.0
11
2166.6666666666665
21
500.0
31
0.0
0
LINE
8
0
10
2166.6666666666665
20
420.0
30
0.0
11
2166.6666666666665
21
580.0
31
0.0
0
LINE
8
0
10
1284.0
20
476.0
30
0.0
11
1316.0
21
476.0
31
0.0
0
LINE
8
0
10
1316.0
20
476.0
30
0.0
11
1316.0
21
524.0
31
0.0
0
LINE
8
0
10
1316.0
20
524.0
30
0.0
11
1284.0
21
524.0
31
0.0
0
LINE
8
0
10
1284.0
20
524.0
30
0.0
11
1284.0
21
476.0
31
0.0
0
LINE
8
0
10
325.0
20
20.0
30
0.0
11
325.0
21
980.0
31
0.0
0
LINE
8
0
10
316.0
20
167.0
30
0.0
11
334.0
21
167.0
31
0.0
0
LINE
8
0
10
334.0
20
167.0
30
0.0
11
334.0
21
193.0
31
0.0
0
LINE
8
0
10
334.0
20
193.0
30
0.0
11
316.0
21
193.0
31
0.0
0
LINE
8
0
10
316.0
20
193.0
30
0.0
11
316.0
21
167.0
31
0.0
0
LINE
8
0
10
316.0
20
807.0
30
0.0
11
334.0
21
807.0
31
0.0
0
LINE
8
0
10
334.0
20
807.0
30
0.0
11
334.0
21
833.0
31
0.0
0
LINE
8
0
10
334.0
20
833.0
30
0.0
11
316.0
21
833.0
31
0.0
0
LINE
8
0
10
316.0
20
833.0
30
0.0
11
316.0
21
807.0
31
0.0
0
LINE
8
0
10
0
20
-1505.0
30
0.0
11
1300.0
21
-1505.0
31
0.0
0
LINE
8
0
10
1300.0
20
-1505.0
30
0.0
11
1300.0
21
-1465.0
31
0.0
0
LINE
8
0
10
1300.0
20
-1465.0
30
0.0
11
0
21
-1465.0
31
0.0
0
LINE
8
0
10
0
20
-1465.0
30
0.0
11
0
21
-1505.0
31
0.0
0
LINE
8
0
10
0
20
-1365.0
30
0.0
11
1300.0
21
-1365.0
31
0.0
0
LINE
8
0
10
1300.0
20
-1365.0
30
0.0
11
1300.0
21
-1325.0
31
0.0
0
LINE
8
0
10
1300.0
20
-1325.0
30
0.0
11
0
21
-1325.0
31
0.0
0
LINE
8
0
10
0
20
-1325.0
30
0.0
11
0
21
-1365.0
31
0.0
0
LINE
8
0
10
0
20
-1325.0
30
0.0
11
1300.0
21
-1325.0
31
0.0
0
LINE
8
0
10
1300.0
20
-1325.0
30
0.0
11
1300.0
21
-1321.5
31
0.0
0
LINE
8
0
10
1300.0
20
-1321.5
30
0.0
11
0
21
-1321.5
31
0.0
0
LINE
8
0
10
0
20
-1321.5
30
0.0
11
0
21
-1325.0
31
0.0
0
LINE
8
0
10
1300.0
20
-1485.0
30
0.0
11
2166.6666666666665
21
-1485.0
31
0.0
0
LINE
8
0
10
1284.0
20
-1507.0
30
0.0
11
1316.0
21
-1507.0
31
0.0
0
LINE
8
0
10
1316.0
20
-1507.0
30
0.0
11
1316.0
21
-1463.0
31
0.0
0
LINE
8
0
10
1316.0
20
-1463.0
30
0.0
11
1284.0
21
-1463.0
31
0.0
0
LINE
8
0
10
1284.0
20
-1463.0
30
0.0
11
1284.0
21
-1507.0
31
0.0
0
LINE
8
0
10
40
20
-1465.0
30
0.0
11
70
21
-1465.0
31
0.0
0
LINE
8
0
10
70
20
-1465.0
30
0.0
11
70
21
-1365.0
31
0.0
0
LINE
8
0
10
70
20
-1365.0
30
0.0
11
40
21
-1365.0
31
0.0
0
LINE
8
0
10
40
20
-1365.0
30
0.0
11
40
21
-1465.0
31
0.0
0
LINE
8
0
10
1230.0
20
-1465.0
30
0.0
11
1260.0
21
-1465.0
31
0.0
0
LINE
8
0
10
1260.0
20
-1465.0
30
0.0
11
1260.0
21
-1365.0
31
0.0
0
LINE
8
0
10
1260.0
20
-1365.0
30
0.0
11
1230.0
21
-1365.0
31
0.0
0
LINE
8
0
10
1230.0
20
-1365.0
30
0.0
11
1230.0
21
-1465.0
31
0.0
0
LINE
8
0
10
433.3333333333333
20
-1465.0
30
0.0
11
463.3333333333333
21
-1465.0
31
0.0
0
LINE
8
0
10
463.3333333333333
20
-1465.0
30
0.0
11
463.3333333333333
21
-1365.0
31
0.0
0
LINE
8
0
10
463.3333333333333
20
-1365.0
30
0.0
11
433.3333333333333
21
-1365.0
31
0.0
0
LINE
8
0
10
433.3333333333333
20
-1365.0
30
0.0
11
433.3333333333333
21
-1465.0
31
0.0
0
LINE
8
0
10
866.6666666666666
20
-1465.0
30
0.0
11
896.6666666666666
21
-1465.0
31
0.0
0
LINE
8
0
10
896.6666666666666
20
-1465.0
30
0.0
11
896.6666666666666
21
-1365.0
31
0.0
0
LINE
8
0
10
896.6666666666666
20
-1365.0
30
0.0
11
866.6666666666666
21
-1365.0
31
0.0
0
LINE
8
0
10
866.6666666666666
20
-1365.0
30
0.0
11
866.6666666666666
21
-1465.0
31
0.0
0
LINE
8
0
10
313.0
20
-1595.5
30
0.0
11
323.0
21
-1595.5
31
0.0
0
LINE
8
0
10
323.0
20
-1595.5
30
0.0
11
323.0
21
-1579.5
31
0.0
0
LINE
8
0
10
323.0
20
-1579.5
30
0.0
11
313.0
21
-1579.5
31
0.0
0
LINE
8
0
10
313.0
20
-1579.5
30
0.0
11
313.0
21
-1595.5
31
0.0
0
LINE
8
0
10
313.0
20
-1579.5
30
0.0
11
323.0
21
-1579.5
31
0.0
0
LINE
8
0
10
323.0
20
-1579.5
30
0.0
11
323.0
21
-1505.0
31
0.0
0
LINE
8
0
10
323.0
20
-1505.0
30
0.0
11
313.0
21
-1505.0
31
0.0
0
LINE
8
0
10
313.0
20
-1505.0
30
0.0
11
313.0
21
-1579.5
31
0.0
0
LINE
8
0
10
327.0
20
-1595.5
30
0.0
11
337.0
21
-1595.5
31
0.0
0
LINE
8
0
10
337.0
20
-1595.5
30
0.0
11
337.0
21
-1579.5
31
0.0
0
LINE
8
0
10
337.0
20
-1579.5
30
0.0
11
327.0
21
-1579.5
31
0.0
0
LINE
8
0
10
327.0
20
-1579.5
30
0.0
11
327.0
21
-1595.5
31
0.0
0
LINE
8
0
10
327.0
20
-1579.5
30
0.0
11
337.0
21
-1579.5
31
0.0
0
LINE
8
0
10
337.0
20
-1579.5
30
0.0
11
337.0
21
-1505.0
31
0.0
0
LINE
8
0
10
337.0
20
-1505.0
30
0.0
11
327.0
21
-1505.0
31
0.0
0
LINE
8
0
10
327.0
20
-1505.0
30
0.0
11
327.0
21
-1579.5
31
0.0
0
CIRCLE
8
0
10
325.0
20
-1587.5
30
0.0
40
62.5
0
ENDSEC
0
EOF
