0
SECTION
2
ENTITIES
0
LINE
8
0
10
0
20
0
30
0.0
11
1600.0
21
0
31
0.0
0
LINE
8
0
10
1600.0
20
0
30
0.0
11
1600.0
21
1000.0
31
0.0
0
LINE
8
0
10
1600.0
20
1000.0
30
0.0
11
0
21
1000.0
31
0.0
0
LINE
8
0
10
0
20
1000.0
30
0.0
11
0
21
0
31
0.0
0
LINE
8
0
10
0.0
20
500.0
30
0.0
11
-1066.6666666666665
21
500.0
31
0.0
0
LINE
8
0
10
-1066.6666666666665
20
420.0
30
0.0
11
-1066.6666666666665
21
580.0
31
0.0
0
LINE
8
0
10
-16.0
20
476.0
30
0.0
11
16.0
21
476.0
31
0.0
0
LINE
8
0
10
16.0
20
476.0
30
0.0
11
16.0
21
524.0
31
0.0
0
LINE
8
0
10
16.0
20
524.0
30
0.0
11
-16.0
21
524.0
31
0.0
0
LINE
8
0
10
-16.0
20
524.0
30
0.0
11
-16.0
21
476.0
31
0.0
0
LINE
8
0
10
90
20
20.0
30
0.0
11
90
21
980.0
31
0.0
0
LINE
8
0
10
81
20
167.0
30
0.0
11
99
21
167.0
31
0.0
0
LINE
8
0
10
99
20
167.0
30
0.0
11
99
21
193.0
31
0.0
0
LINE
8
0
10
99
20
193.0
30
0.0
11
81
21
193.0
31
0.0
0
LINE
8
0
10
81
20
193.0
30
0.0
11
81
21
167.0
31
0.0
0
LINE
8
0
10
81
20
807.0
30
0.0
11
99
21
807.0
31
0.0
0
LINE
8
0
10
99
20
807.0
30
0.0
11
99
21
833.0
31
0.0
0
LINE
8
0
10
99
20
833.0
30
0.0
11
81
21
833.0
31
0.0
0
LINE
8
0
10
81
20
833.0
30
0.0
11
81
21
807.0
31
0.0
0
LINE
8
0
10
1510.0
20
20.0
30
0.0
11
1510.0
21
980.0
31
0.0
0
LINE
8
0
10
1501.0
20
167.0
30
0.0
11
1519.0
21
167.0
31
0.0
0
LINE
8
0
10
1519.0
20
167.0
30
0.0
11
1519.0
21
193.0
31
0.0
0
LINE
8
0
10
1519.0
20
193.0
30
0.0
11
1501.0
21
193.0
31
0.0
0
LINE
8
0
10
1501.0
20
193.0
30
0.0
11
1501.0
21
167.0
31
0.0
0
LINE
8
0
10
1501.0
20
807.0
30
0.0
11
1519.0
21
807.0
31
0.0
0
LINE
8
0
10
1519.0
20
807.0
30
0.0
11
1519.0
21
833.0
31
0.0
0
LINE
8
0
10
1519.0
20
833.0
30
0.0
11
1501.0
21
833.0
31
0.0
0
LINE
8
0
10
1501.0
20
833.0
30
0.0
11
1501.0
21
807.0
31
0.0
0
LINE
8
0
10
0
20
-1505.0
30
0.0
11
1600.0
21
-1505.0
31
0.0
0
LINE
8
0
10
1600.0
20
-1505.0
30
0.0
11
1600.0
21
-1465.0
31
0.0
0
LINE
8
0
10
1600.0
20
-1465.0
30
0.0
11
0
21
-1465.0
31
0.0
0
LINE
8
0
10
0
20
-1465.0
30
0.0
11
0
21
-1505.0
31
0.0
0
LINE
8
0
10
0
20
-1365.0
30
0.0
11
1600.0
21
-1365.0
31
0.0
0
LINE
8
0
10
1600.0
20
-1365.0
30
0.0
11
1600.0
21
-1325.0
31
0.0
0
LINE
8
0
10
1600.0
20
-1325.0
30
0.0
11
0
21
-1325.0
31
0.0
0
LINE
8
0
10
0
20
-1325.0
30
0.0
11
0
21
-1365.0
31
0.0
0
LINE
8
0
10
0
20
-1325.0
30
0.0
11
1600.0
21
-1325.0
31
0.0
0
LINE
8
0
10
1600.0
20
-1325.0
30
0.0
11
1600.0
21
-1320.5
31
0.0
0
LINE
8
0
10
1600.0
20
-1320.5
30
0.0
11
0
21
-1320.5
31
0.0
0
LINE
8
0
10
0
20
-1320.5
30
0.0
11
0
21
-1325.0
31
0.0
0
LINE
8
0
10
0.0
20
-1485.0
30
0.0
11
-1066.6666666666665
21
-1485.0
31
0.0
0
LINE
8
0
10
-16.0
20
-1507.0
30
0.0
11
16.0
21
-1507.0
31
0.0
0
LINE
8
0
10
16.0
20
-1507.0
30
0.0
11
16.0
21
-1463.0
31
0.0
0
LINE
8
0
10
16.0
20
-1463.0
30
0.0
11
-16.0
21
-1463.0
31
0.0
0
LINE
8
0
10
-16.0
20
-1463.0
30
0.0
11
-16.0
21
-1507.0
31
0.0
0
LINE
8
0
10
40
20
-1465.0
30
0.0
11
70
21
-1465.0
31
0.0
0
LINE
8
0
10
70
20
-1465.0
30
0.0
11
70
21
-1365.0
31
0.0
0
LINE
8
0
10
70
20
-1365.0
30
0.0
11
40
21
-1365.0
31
0.0
0
LINE
8
0
10
40
20
-1365.0
30
0.0
11
40
21
-1465.0
31
0.0
0
LINE
8
0
10
1530.0
20
-1465.0
30
0.0
11
1560.0
21
-1465.0
31
0.0
0
LINE
8
0
10
1560.0
20
-1465.0
30
0.0
11
1560.0
21
-1365.0
31
0.0
0
LINE
8
0
10
1560.0
20
-1365.0
30
0.0
11
1530.0
21
-1365.0
31
0.0
0
LINE
8
0
10
1530.0
20
-1365.0
30
0.0
11
1530.0
21
-1465.0
31
0.0
0
LINE
8
0
10
533.3333333333334
20
-1465.0
30
0.0
11
563.3333333333334
21
-1465.0
31
0.0
0
LINE
8
0
10
563.3333333333334
20
-1465.0
30
0.0
11
563.3333333333334
21
-1365.0
31
0.0
0
LINE
8
0
10
563.3333333333334
20
-1365.0
30
0.0
11
533.3333333333334
21
-1365.0
31
0.0
0
LINE
8
0
10
533.3333333333334
20
-1365.0
30
0.0
11
533.3333333333334
21
-1465.0
31
0.0
0
LINE
8
0
10
1066.6666666666667
20
-1465.0
30
0.0
11
1096.6666666666667
21
-1465.0
31
0.0
0
LINE
8
0
10
1096.6666666666667
20
-1465.0
30
0.0
11
1096.6666666666667
21
-1365.0
31
0.0
0
LINE
8
0
10
1096.6666666666667
20
-1365.0
30
0.0
11
1066.6666666666667
21
-1365.0
31
0.0
0
LINE
8
0
10
1066.6666666666667
20
-1365.0
30
0.0
11
1066.6666666666667
21
-1465.0
31
0.0
0
LINE
8
0
10
78.0
20
-1595.5
30
0.0
11
88.0
21
-1595.5
31
0.0
0
LINE
8
0
10
88.0
20
-1595.5
30
0.0
11
88.0
21
-1579.5
31
0.0
0
LINE
8
0
10
88.0
20
-1579.5
30
0.0
11
78.0
21
-1579.5
31
0.0
0
LINE
8
0
10
78.0
20
-1579.5
30
0.0
11
78.0
21
-1595.5
31
0.0
0
LINE
8
0
10
78.0
20
-1579.5
30
0.0
11
88.0
21
-1579.5
31
0.0
0
LINE
8
0
10
88.0
20
-1579.5
30
0.0
11
88.0
21
-1505.0
31
0.0
0
LINE
8
0
10
88.0
20
-1505.0
30
0.0
11
78.0
21
-1505.0
31
0.0
0
LINE
8
0
10
78.0
20
-1505.0
30
0.0
11
78.0
21
-1579.5
31
0.0
0
LINE
8
0
10
92.0
20
-1595.5
30
0.0
11
102.0
21
-1595.5
31
0.0
0
LINE
8
0
10
102.0
20
-1595.5
30
0.0
11
102.0
21
-1579.5
31
0.0
0
LINE
8
0
10
102.0
20
-1579.5
30
0.0
11
92.0
21
-1579.5
31
0.0
0
LINE
8
0
10
92.0
20
-1579.5
30
0.0
11
92.0
21
-1595.5
31
0.0
0
LINE
8
0
10
92.0
20
-1579.5
30
0.0
11
102.0
21
-1579.5
31
0.0
0
LINE
8
0
10
102.0
20
-1579.5
30
0.0
11
102.0
21
-1505.0
31
0.0
0
LINE
8
0
10
102.0
20
-1505.0
30
0.0
11
92.0
21
-1505.0
31
0.0
0
LINE
8
0
10
92.0
20
-1505.0
30
0.0
11
92.0
21
-1579.5
31
0.0
0
LINE
8
0
10
1498.0
20
-1595.5
30
0.0
11
1508.0
21
-1595.5
31
0.0
0
LINE
8
0
10
1508.0
20
-1595.5
30
0.0
11
1508.0
21
-1579.5
31
0.0
0
LINE
8
0
10
1508.0
20
-1579.5
30
0.0
11
1498.0
21
-1579.5
31
0.0
0
LINE
8
0
10
1498.0
20
-1579.5
30
0.0
11
1498.0
21
-1595.5
31
0.0
0
LINE
8
0
10
1498.0
20
-1579.5
30
0.0
11
1508.0
21
-1579.5
31
0.0
0
LINE
8
0
10
1508.0
20
-1579.5
30
0.0
11
1508.0
21
-1505.0
31
0.0
0
LINE
8
0
10
1508.0
20
-1505.0
30
0.0
11
1498.0
21
-1505.0
31
0.0
0
LINE
8
0
10
1498.0
20
-1505.0
30
0.0
11
1498.0
21
-1579.5
31
0.0
0
LINE
8
0
10
1512.0
20
-1595.5
30
0.0
11
1522.0
21
-1595.5
31
0.0
0
LINE
8
0
10
1522.0
20
-1595.5
30
0.0
11
1522.0
21
-1579.5
31
0.0
0
LINE
8
0
10
1522.0
20
-1579.5
30
0.0
11
1512.0
21
-1579.5
31
0.0
0
LINE
8
0
10
1512.0
20
-1579.5
30
0.0
11
1512.0
21
-1595.5
31
0.0
0
LINE
8
0
10
1512.0
20
-1579.5
30
0.0
11
1522.0
21
-1579.5
31
0.0
0
LINE
8
0
10
1522.0
20
-1579.5
30
0.0
11
1522.0
21
-1505.0
31
0.0
0
LINE
8
0
10
1522.0
20
-1505.0
30
0.0
11
1512.0
21
-1505.0
31
0.0
0
LINE
8
0
10
1512.0
20
-1505.0
30
0.0
11
1512.0
21
-1579.5
31
0.0
0
CIRCLE
8
0
10
90
20
-1587.5
30
0.0
40
62.5
0
CIRCLE
8
0
10
1510.0
20
-1587.5
30
0.0
40
62.5
0
ENDSEC
0
EOF
